<svg xmlns="http://www.w3.org/2000/svg" width="26.066" height="23.312" viewBox="0 0 26.066 23.312">
  <g id="home" transform="translate(0.566 -27.271)">
    <g id="Group_26" data-name="Group 26" transform="translate(-0.001 27.798)">
      <g id="Group_25" data-name="Group 25" transform="translate(0 0)">
        <path id="Path_154" data-name="Path 154" d="M24.734,36.6l-11.85-8.677a.649.649,0,0,0-.767,0L.265,36.6a.65.65,0,0,0,.767,1.048l11.467-8.4,11.467,8.4a.65.65,0,0,0,.767-1.048Z" transform="translate(0.001 -27.798)" fill="#002b51" stroke="#002b51" stroke-width="1"/>
      </g>
    </g>
    <g id="Group_28" data-name="Group 28" transform="translate(2.756 37.795)">
      <g id="Group_27" data-name="Group 27" transform="translate(0 0)">
        <path id="Path_155" data-name="Path 155" d="M75.29,232.543a.65.65,0,0,0-.65.65v10.339h-5.2v-5.644a3.248,3.248,0,0,0-6.5,0v5.644h-5.2V233.193a.65.65,0,1,0-1.3,0v10.989a.65.65,0,0,0,.65.65h6.5a.649.649,0,0,0,.647-.6.487.487,0,0,0,0-.051v-6.293a1.949,1.949,0,1,1,3.9,0v6.293a.479.479,0,0,0,0,.05.649.649,0,0,0,.647.6h6.5a.65.65,0,0,0,.65-.65V233.193A.65.65,0,0,0,75.29,232.543Z" transform="translate(-56.452 -232.543)" fill="#002b51" stroke="#002b51" stroke-width="1"/>
      </g>
    </g>
  </g>
</svg>
