<svg xmlns="http://www.w3.org/2000/svg" width="25.8" height="24.178" viewBox="0 0 25.8 24.178">
  <g id="message" transform="translate(0.4 -16.394)">
    <g id="Group_30" data-name="Group 30" transform="translate(0 16.814)">
      <g id="Group_29" data-name="Group 29">
        <path id="Path_157" data-name="Path 157" d="M24.981,25.642a.369.369,0,0,0-.023-.127.638.638,0,0,0-.252-.356l-3.579-2.488V20a.64.64,0,0,0-.64-.64H16.37l-3.5-2.435a.64.64,0,0,0-.729,0L8.612,19.364h-4.1a.64.64,0,0,0-.64.64V22.64l-3.6,2.485A.639.639,0,0,0,0,25.643s0,.007,0,.011L.019,39.533a.64.64,0,0,0,.64.639h0l23.7-.033A.64.64,0,0,0,25,39.5Zm-3.853-1.411,2.046,1.422-2.046,1.422Zm-8.627-6,1.626,1.131H10.865ZM5.153,20.645H19.847v7.32l-4.933,3.43L12.9,29.835l-.009-.006a.64.64,0,0,0-.776.006l-2.026,1.572L5.153,27.993ZM3.873,24.2v2.912L1.766,25.652ZM1.282,26.875,9.03,32.23l-7.732,6ZM2.533,38.889l9.977-7.738,9.941,7.711Zm13.441-6.672L23.7,26.844l.016,11.38Z" transform="translate(0 -16.814)" fill="#002b51" stroke="#002b51" stroke-width="0.8"/>
      </g>
    </g>
    <g id="Group_32" data-name="Group 32" transform="translate(7.525 23.206)">
      <g id="Group_31" data-name="Group 31">
        <path id="Path_158" data-name="Path 158" d="M163.431,147.713h-8.669a.64.64,0,0,0,0,1.28h8.669a.64.64,0,0,0,0-1.28Z" transform="translate(-154.122 -147.713)" fill="#002b51" stroke="#002b51" stroke-width="0.8"/>
      </g>
    </g>
    <g id="Group_34" data-name="Group 34" transform="translate(7.525 26.535)">
      <g id="Group_33" data-name="Group 33">
        <path id="Path_159" data-name="Path 159" d="M163.431,215.9h-8.669a.64.64,0,0,0,0,1.28h8.669a.64.64,0,0,0,0-1.28Z" transform="translate(-154.122 -215.895)" fill="#002b51" stroke="#002b51" stroke-width="0.8"/>
      </g>
    </g>
  </g>
</svg>
