<svg xmlns="http://www.w3.org/2000/svg" width="25.27" height="32.5" viewBox="0 0 25.27 32.5">
  <path id="notification" d="M22.338,23.1V13.448a9.97,9.97,0,0,0-7.062-9.524c0-.018,0-.036,0-.054V3.061A2.985,2.985,0,0,0,12.385,0,2.985,2.985,0,0,0,9.492,3.061V3.87c0,.018,0,.036,0,.054a9.97,9.97,0,0,0-7.062,9.524V23.1A2.864,2.864,0,0,0,0,25.925V27.42a1.164,1.164,0,0,0,1.163,1.163h6.97a4.355,4.355,0,0,0,8.505,0h6.97A1.164,1.164,0,0,0,24.77,27.42V25.925A2.864,2.864,0,0,0,22.338,23.1ZM11.367,3.062a1.114,1.114,0,0,1,1.019-1.187A1.114,1.114,0,0,1,13.4,3.062v.486a10.048,10.048,0,0,0-2.037,0ZM4.308,13.448a8.078,8.078,0,0,1,16.155,0v9.617H4.308Zm8.078,16.677a2.484,2.484,0,0,1-2.3-1.543h4.593a2.484,2.484,0,0,1-2.3,1.543ZM22.9,26.707H1.875v-.782a.986.986,0,0,1,.985-.985H21.911a.986.986,0,0,1,.985.985Zm0,0" transform="translate(0.25 0.25)" fill="#002b51" stroke="#002b51" stroke-width="0.5"/>
</svg>
