<svg height="512pt" viewBox="-31 0 512 512" width="512pt" xmlns="http://www.w3.org/2000/svg"><path d="m318 228.5-34.800781 216.898438c-14.398438 23.402343-31.5 46.5-52.199219 66.601562h-132c-38.398438-38.101562-69.601562-88.5-86.101562-142.199219l2.703124-32.703125-10.800781-1.5c-3-15.296875-4.800781-30.898437-4.800781-46.496094 0-62.402343 24-80.800781 45.300781-96.101562 21.898438-15.601562 44.699219-32.101562 44.699219-117v-15l75-29.5 3.601562-1.5 71.398438 31v15c0 84.898438 22.800781 101.398438 44.699219 117 11.402343 8.398438 24.300781 18.699219 33.300781 35.5zm0 0" fill="#c6715a"/><path d="m318 228.5-34.800781 216.898438c-14.398438 23.402343-31.5 46.5-52.199219 66.601562h-66v-480.5l3.601562-1.5 71.398438 31v15c0 84.898438 22.800781 101.398438 44.699219 117 11.402343 8.398438 24.300781 18.699219 33.300781 35.5zm0 0" fill="#99503d"/><path d="m143.703125 406.980469 21.300781-21.300781 21.296875 21.300781-21.296875 21.300781zm0 0" fill="#fed2a4"/><path d="m105 265.785156 21.210938 21.210938-21.210938 21.210937-21.210938-21.210937zm0 0" fill="#fed2a4"/><path d="m225 265.785156 21.210938 21.210938-21.210938 21.210937-21.210938-21.210937zm0 0" fill="#f6a96c"/><path d="m270 0-30 61h-150l-30-61zm0 0" fill="#804231"/><path d="m165 385.699219 21.300781 21.300781-21.300781 21.300781zm0 0" fill="#f6a96c"/><path d="m240 61h-75v-61h105zm0 0" fill="#582b1f"/><path d="m266.699219 356.300781-41.097657 40.800781-60.601562-60-59.398438 60-60-60-32.703124 32.699219c-3.296876-11.101562-6-22.5-8.097657-34.199219l40.800781-40.800781 60 60 59.398438-60 60.601562 60 19.796876-19.800781zm0 0" fill="#fed2a4"/><path d="m245.398438 335 21.300781 21.300781-41.097657 40.796875-60.601562-60v-42.296875l60.601562 60zm0 0" fill="#f6a96c"/><path d="m418.800781 265.398438c-15-21.597657-28.800781-43.296876-28.800781-99.398438v-15l-45-30-45 30v15c0 56.101562-13.800781 77.800781-28.800781 99.398438-15.296875 22.800781-31.199219 46.203124-31.199219 102.300781 0 62.101562 26.699219 103.5 68.699219 144.300781h72.601562c41.398438-40.199219 68.699219-81.300781 68.699219-144.300781 0-56.097657-15.902344-79.5-31.199219-102.300781zm0 0" fill="#fed2a4"/><path d="m450 367.699219c0 63-27.300781 104.101562-68.699219 144.300781h-36.300781v-391l45 30v15c0 56.101562 13.800781 77.800781 28.800781 99.398438 15.296875 22.800781 31.199219 46.203124 31.199219 102.300781zm0 0" fill="#f6a96c"/><path d="m420 91-30 60h-90l-30-60zm0 0" fill="#ffbd86"/><path d="m420 91-30 60h-45v-60zm0 0" fill="#ea9b58"/></svg>