<?xml version="1.0" encoding="utf-8"?>
<!-- Generator: Adobe Illustrator 19.0.0, SVG Export Plug-In . SVG Version: 6.00 Build 0)  -->
<svg version="1.1" id="Layer_1" xmlns="http://www.w3.org/2000/svg" xmlns:xlink="http://www.w3.org/1999/xlink" x="0px" y="0px"
	 viewBox="500 -500 2000 1079.9" style="enable-background:new 500 -500 2000 1079.9;" xml:space="preserve">
<style type="text/css">
	.st0{fill:#62BCEA;}
	.st1{fill:#112D51;}
</style>
<g id="XMLID_41_">
	<polygon id="XMLID_39_" class="st0" points="954,-408.2 777.8,-303.9 865.8,-253 953.5,-303.9 1041.6,-253 1041.3,-151.8 
		952.2,-100 951.5,5.3 1132.1,-99.7 1132.7,-304.5 1133.2,-304.8 	"/>
	<g id="XMLID_107_">
		<polygon id="XMLID_38_" class="st1" points="1069.2,476.2 1068.6,271.3 888,166.4 888.7,271.6 977.8,323.4 978,424.7 890,475.5 
			524,256.6 523.8,354.4 890.7,579.9 1069.7,476.5 		"/>
		<polygon id="XMLID_37_" class="st1" points="981.5,152.7 1069.7,101.8 893.3,-2.5 714.3,100.9 714.8,101.2 715.5,306 896,411 
			895.3,305.7 806.3,253.9 806,152.7 894,101.8 		"/>
	</g>
	<polygon id="XMLID_36_" class="st1" points="778,-344.8 866,-395.7 689.8,-500 510.6,-396.6 511.3,-396.3 511.9,-191.5 
		692.5,-86.5 691.8,-191.8 602.7,-243.6 602.3,-344.8 690.5,-395.7 	"/>
	<polygon id="XMLID_35_" class="st1" points="865.5,-21.3 865,-226.2 684.3,-331.1 685,-225.8 774,-174 774.3,-72.8 686.8,-22.2 
		685.7,-21.9 506.3,-132.2 506.3,-32.3 686.3,82.4 865.8,-21 	"/>
	<g id="XMLID_42_">
		<path id="XMLID_103_" class="st1" d="M1370.6-50.4c0-11.9-2.8-22.1-8.4-30.3c-5.6-8.3-14.4-15.6-26.4-22s-30.2-12.9-54.4-19.6
			c-24.3-6.7-42.5-13.4-54.6-20.2c-12.1-6.8-21-14.7-26.7-23.7s-8.5-19.9-8.5-32.8c0-20.4,8.6-37,25.8-49.6
			c17.2-12.7,39.6-19,67.2-19c18,0,34.1,3.5,48.5,10.5c14.3,7,25.4,16.8,33.2,29.5c7.8,12.7,11.8,26.9,11.8,42.9h-10.4
			c0-20.9-7.7-38.2-23.1-51.9s-35.4-20.5-59.9-20.5c-24.7,0-44.6,5.5-59.8,16.5c-15.2,11-22.8,24.8-22.8,41.3
			c0,16.8,6.6,30.4,19.8,40.7c13.2,10.3,35.1,19.4,65.5,27.3c30.4,7.9,52.7,17,66.9,27.5c18,13.2,27,31,27,53.2
			c0,14.1-4,26.6-11.9,37.5c-8,10.9-19.3,19.2-33.9,25.1c-14.6,5.9-31.1,8.9-49.3,8.9c-20.3,0-38.5-3.4-54.7-10.1
			c-16.2-6.7-28.4-16.3-36.5-28.8c-8.2-12.5-12.2-27.2-12.2-44.1h10.4c0,23,8.6,40.8,25.8,53.6c17.2,12.7,39.6,19.1,67.2,19.1
			c24.5,0,44.8-5.6,60.7-16.9C1362.7-17.8,1370.6-32.4,1370.6-50.4z"/>
		<path id="XMLID_101_" class="st1" d="M1454.1,16.9h-10.4v-280.6h10.4V16.9z"/>
		<path id="XMLID_99_" class="st1" d="M1706.8-50.4c0-11.9-2.8-22.1-8.4-30.3c-5.6-8.3-14.4-15.6-26.4-22s-30.2-12.9-54.4-19.6
			c-24.3-6.7-42.5-13.4-54.6-20.2s-21-14.7-26.7-23.7s-8.5-19.9-8.5-32.8c0-20.4,8.6-37,25.8-49.6c17.2-12.7,39.6-19,67.2-19
			c18,0,34.1,3.5,48.5,10.5c14.3,7,25.4,16.8,33.2,29.5c7.8,12.7,11.8,26.9,11.8,42.9h-10.4c0-20.9-7.7-38.2-23.1-51.9
			s-35.4-20.5-59.9-20.5c-24.7,0-44.6,5.5-59.8,16.5c-15.2,11-22.8,24.8-22.8,41.3c0,16.8,6.6,30.4,19.8,40.7
			c13.2,10.3,35.1,19.4,65.5,27.3c30.4,7.9,52.7,17,66.9,27.5c18,13.2,27,31,27,53.2c0,14.1-4,26.6-11.9,37.5
			c-8,10.9-19.3,19.2-33.9,25.1c-14.6,5.9-31.1,8.9-49.3,8.9c-20.3,0-38.5-3.4-54.7-10.1c-16.2-6.7-28.4-16.3-36.5-28.8
			c-8.2-12.5-12.2-27.2-12.2-44.1h10.4c0,23,8.6,40.8,25.8,53.6c17.2,12.7,39.6,19.1,67.2,19.1c24.5,0,44.8-5.6,60.7-16.9
			C1698.8-17.8,1706.8-32.4,1706.8-50.4z"/>
		<path id="XMLID_97_" class="st1" d="M1958.8-253.3h-102.1V16.8h-10.4v-270.1h-102.1v-10.4h214.6V-253.3z"/>
		<path id="XMLID_95_" class="st1" d="M2158.9-122.2h-140.6V6.5h160.3v10.4H2008v-280.6h170.7v10.4h-160.3v120.6h140.6V-122.2z"/>
		<path id="XMLID_93_" class="st1" d="M2247.4-263.7L2362.8,1.6l115.8-265.3h15.2V16.8h-10.4v-265L2366.9,16.9h-8.3l-115.8-263.8
			V16.9h-10.4v-280.6H2247.4z"/>
		<path id="XMLID_90_" class="st1" d="M1188.8,143.4v59.8h-5.3V61.6h44.3c14.5,0,25.7,3.6,33.7,10.9c8,7.3,12,17.4,12,30.4
			c0,12.8-3.9,22.8-11.7,29.8s-18.9,10.6-33.3,10.7L1188.8,143.4L1188.8,143.4z M1188.8,138.1h39c12.8,0,22.7-3.1,29.8-9.2
			c7.1-6.2,10.7-14.8,10.7-25.8c0-11.4-3.6-20.3-10.7-26.7c-7.1-6.4-17-9.6-29.8-9.6h-39V138.1z"/>
		<path id="XMLID_88_" class="st1" d="M1379.4,133h-71v65h80.9v5.3h-86.2V61.6h86.2v5.3h-80.9v60.9h71V133z"/>
		<path id="XMLID_86_" class="st1" d="M1518.6,203.2h-5.3l-91.4-132.7v132.7h-5.3V61.6h5.3l91.4,132.4V61.6h5.3V203.2z"/>
		<path id="XMLID_84_" class="st1" d="M1657.3,188c-3.6,4.9-9.8,9-18.8,12.3c-8.9,3.2-18.8,4.9-29.6,4.9c-10.5,0-19.9-2.6-28.1-7.7
			s-14.7-12.4-19.3-21.7c-4.6-9.3-7-19.9-7.1-31.7v-24.3c0-11.6,2.2-22,6.7-31.2c4.5-9.2,10.8-16.3,18.9-21.3s17.2-7.5,27.3-7.5
			c14.1,0,25.5,3.6,34.4,10.8s14,17,15.4,29.5h-5.3c-1.8-11.3-6.5-19.9-14.1-26c-7.7-6-17.8-9-30.4-9c-14.3,0-25.8,5.1-34.5,15.3
			c-8.8,10.2-13.1,23.6-13.1,40.2v22.6c0,11.1,2.1,21,6.2,29.7s9.9,15.4,17.4,20.2s16.1,7.1,25.7,7.1c9.5,0,18.3-1.4,26.4-4.2
			c8.1-2.8,13.7-6.2,16.7-10.1v-41.3h-43.3v-5.3h48.5L1657.3,188L1657.3,188z"/>
		<path id="XMLID_82_" class="st1" d="M1770.6,133h-71v65h80.9v5.3h-86.2V61.6h86.2v5.3h-80.9v60.9h71L1770.6,133L1770.6,133z"/>
		<path id="XMLID_80_" class="st1" d="M1813.1,198h72.7v5.3h-78V61.6h5.3V198z"/>
		<path id="XMLID_77_" class="st1" d="M2004.4,143c0,12.3-2.2,23.1-6.6,32.5s-10.6,16.7-18.7,21.9c-8.1,5.2-17.4,7.7-28,7.7
			c-16,0-28.9-5.7-38.7-17c-9.9-11.3-14.8-26.7-14.8-45.9v-20.4c0-12.2,2.2-23,6.6-32.5s10.6-16.8,18.8-21.9
			c8.1-5.2,17.5-7.7,28-7.7c10.6,0,19.9,2.6,28.1,7.7c8.1,5.2,14.4,12.5,18.8,22s6.6,20.3,6.6,32.4V143H2004.4z M1999.2,121.6
			c0-17.1-4.3-30.8-13-41.2c-8.7-10.3-20.4-15.5-35.2-15.5c-14.6,0-26.2,5.1-34.9,15.4c-8.7,10.3-13,24.3-13,42V143
			c0,11.3,2,21.3,5.9,29.9c3.9,8.7,9.5,15.3,16.8,20s15.8,7,25.5,7c14.8,0,26.5-5.2,35.1-15.5s12.9-24.4,12.9-42.2v-20.6H1999.2z"/>
		<path id="XMLID_75_" class="st1" d="M2042.2,198h72.7v5.3h-78V61.6h5.3V198z"/>
		<path id="XMLID_72_" class="st1" d="M2216.1,160.9h-69.3l-15.8,42.3h-5.7l53-141.6h6.4l53,141.6h-5.7L2216.1,160.9z M2148.6,155.6
			h65.5l-32.7-87.7L2148.6,155.6z"/>
		<path id="XMLID_69_" class="st1" d="M2335.1,160.9h-69.3l-15.8,42.3h-5.7l53-141.6h6.4l53,141.6h-5.7L2335.1,160.9z M2267.6,155.6
			h65.5l-32.7-87.7L2267.6,155.6z"/>
		<path id="XMLID_67_" class="st1" d="M2481.4,203.2h-5.3l-91.4-132.7v132.7h-5.3V61.6h5.3l91.4,132.4V61.6h5.3V203.2z"/>
		<path id="XMLID_65_" class="st1" d="M1290.3,373.4c0-7.3-1.7-13.5-5.1-18.6c-3.4-5.1-8.8-9.5-16.1-13.4s-18.4-7.9-33.3-12
			c-14.8-4.1-26-8.2-33.4-12.4c-7.4-4.2-12.9-9-16.3-14.5c-3.5-5.5-5.2-12.2-5.2-20c0-12.5,5.3-22.6,15.8-30.3
			c10.5-7.7,24.2-11.6,41.1-11.6c11,0,20.9,2.1,29.6,6.4c8.8,4.3,15.5,10.3,20.3,18c4.8,7.7,7.2,16.5,7.2,26.2h-6.4
			c0-12.8-4.7-23.4-14.1-31.8c-9.4-8.4-21.6-12.6-36.6-12.6c-15.1,0-27.3,3.4-36.6,10.1s-14,15.1-14,25.3c0,10.3,4,18.6,12.1,24.9
			s21.4,11.8,40.1,16.7c18.6,4.8,32.2,10.4,40.9,16.8c11,8.1,16.5,18.9,16.5,32.5c0,8.6-2.4,16.3-7.3,22.9
			c-4.9,6.6-11.8,11.8-20.7,15.4c-9,3.6-19,5.4-30.2,5.4c-12.4,0-23.6-2.1-33.5-6.2c-9.9-4.1-17.3-10-22.3-17.6s-7.5-16.6-7.5-27
			h6.4c0,14.1,5.3,25,15.8,32.8s24.2,11.7,41.1,11.7c15,0,27.4-3.4,37.1-10.3C1285.6,393.3,1290.3,384.4,1290.3,373.4z"/>
		<path id="XMLID_63_" class="st1" d="M1422.8,329.4h-86v78.7h98v6.4h-104.4V242.9h104.4v6.4h-98v73.8h86V329.4z"/>
		<path id="XMLID_60_" class="st1" d="M1533.1,341.1h-59.5v73.4h-6.4V242.9h54.7c17.2,0,30.9,4.4,41.1,13.3
			c10.2,8.9,15.3,20.9,15.3,36.2c0,11.7-3.6,21.9-10.9,30.7c-7.3,8.8-16.5,14.2-27.8,16.3l45.8,73.4v1.6h-6.7L1533.1,341.1z
			 M1473.6,334.7h54.1c13.2,0,23.9-4,32-12s12.2-18.1,12.2-30.3c0-13.4-4.5-23.9-13.5-31.6s-21.3-11.5-36.9-11.5h-47.8L1473.6,334.7
			L1473.6,334.7z"/>
		<path id="XMLID_58_" class="st1" d="M1730.3,249.3h-62.5v165.2h-6.4V249.3h-62.5v-6.4h131.3L1730.3,249.3L1730.3,249.3z"/>
		<path id="XMLID_56_" class="st1" d="M1771.6,414.5h-6.4V242.9h6.4V414.5z"/>
		<path id="XMLID_54_" class="st1" d="M1917.7,330.1h-87.9v84.4h-6.4V242.9h106.3v6.4h-99.9v74.2h87.9V330.1z"/>
		<path id="XMLID_52_" class="st1" d="M1972.6,414.5h-6.4V242.9h6.4V414.5z"/>
		<path id="XMLID_50_" class="st1" d="M2058.3,324.2l-27.5,25.3v64.9h-6.4V242.8h6.4V342l28.3-27.7l71.2-71.5h9.2l-76.5,76.9
			l82.4,94.6h-8.2L2058.3,324.2z"/>
		<path id="XMLID_47_" class="st1" d="M2267.9,363.3h-84l-19.1,51.3h-7L2222,243h7.8l64.2,171.6h-7L2267.9,363.3z M2186.4,356.9
			h79.3l-39.6-106.3L2186.4,356.9z"/>
		<path id="XMLID_45_" class="st1" d="M2424.4,373.4c0-7.3-1.7-13.5-5.1-18.6c-3.4-5.1-8.8-9.5-16.1-13.4c-7.3-3.9-18.4-7.9-33.3-12
			c-14.8-4.1-26-8.2-33.4-12.4c-7.4-4.2-12.9-9-16.3-14.5c-3.5-5.5-5.2-12.2-5.2-20c0-12.5,5.3-22.6,15.8-30.3
			c10.5-7.7,24.2-11.6,41.1-11.6c11,0,20.9,2.1,29.6,6.4c8.8,4.3,15.5,10.3,20.3,18c4.8,7.7,7.2,16.5,7.2,26.2h-6.4
			c0-12.8-4.7-23.4-14.1-31.8c-9.4-8.4-21.6-12.6-36.6-12.6c-15.1,0-27.3,3.4-36.6,10.1c-9.3,6.7-14,15.1-14,25.3
			c0,10.3,4,18.6,12.1,24.9s21.4,11.8,40.1,16.7c18.6,4.8,32.2,10.4,40.9,16.8c11,8.1,16.5,18.9,16.5,32.5c0,8.6-2.4,16.3-7.3,22.9
			s-11.8,11.8-20.7,15.4c-9,3.6-19,5.4-30.2,5.4c-12.4,0-23.6-2.1-33.5-6.2s-17.3-10-22.3-17.6s-7.5-16.6-7.5-27h6.4
			c0,14.1,5.3,25,15.8,32.8s24.2,11.7,41.1,11.7c15,0,27.4-3.4,37.1-10.3C2419.6,393.3,2424.4,384.4,2424.4,373.4z"/>
		<path id="XMLID_43_" class="st1" d="M2475.6,414.5h-6.4V242.9h6.4V414.5z"/>
	</g>
</g>
</svg>
